<svg height="32" viewBox="0 0 128 32" width="128" xmlns="http://www.w3.org/2000/svg"><path d="m106.58 13.26a0 0 0 0 0 0 0z"/><path d="m117.5 17.72.12-.1a.56.56 0 0 0 -.05-.23.44.44 0 0 1 0-.39.47.47 0 0 0 0-.61.71.71 0 0 1 -.08-.15l-.13-.15.13-.1c0-.1-.06-.22.1-.25h.28a.22.22 0 0 0 -.17-.09.86.86 0 0 0 -.17 0 1.7 1.7 0 0 0 .14-.1c.1-.1.1-.13 0-.42.15-.15.1-.2-.1-.23s0-.15 0-.22l-.13-.13-.1-.08h.1v-.13c-.24-.06-.08-.25-.13-.37-.23.12-.23.12-.25-.1v-.06c0-.23 0-.3-.28-.15 0 0-.16-.06-.2-.12s-.05-.2.1-.2a.78.78 0 0 0 0-.22c-.1-.2-.33-.4-.3-.6 0-.37-.2-.5-.4-.7-.18 0-.12.14-.08.26s0 .05 0 0 0 .07 0 .07h-.07a3 3 0 0 1 -.55-.69.37.37 0 0 0 -.16-.17s-.13.06-.17.1a1.33 1.33 0 0 0 -.09.21.9.9 0 0 1 -.2-.19c-.3-.42-.5-.47-1-.3h-.12a.2.2 0 0 1 -.08.08v-.07h.08a2.36 2.36 0 0 0 -.2-.23c-.17.2-.27 0-.4-.07a.24.24 0 0 0 -.13 0c-.2.18-.37.06-.52-.1s-.08 0-.13 0c0 .4-.2.1-.35.07s-.23-.07-.22.12c0 0 0 .05 0 0s0 .07 0 .07h-.08a.7.7 0 0 0 -.4-.09 1.16 1.16 0 0 0 -.66.14s-.1 0-.1-.05c0-.2-.17-.12-.24-.2s-.1 0-.13 0c0 .3-.26.44-.33.72l-.2-.4-.32.26v.1c.4 0-.1.18 0 .25l.1.08a.3.3 0 0 0 -.1.07.24.24 0 0 1 -.08.09v-.08a.38.38 0 0 1 .1 0v-.46c-.24.08-.25-.12-.3-.23l-.46.63a.23.23 0 0 1 -.07.09v-.08h.07l-.13-.13-.1-.12h-.22l.1.17a.78.78 0 0 0 0 .07v.08l-.08-.06c-.14 0-.27-.08-.28.1l.1.08-.1.05c0 .17-.13.1-.23.12s-.22 0-.23 0c0 .27-.32.26-.45.42a1.21 1.21 0 0 0 -.29.56v.07h-.07c-.1 0-.24-.35-.27 0a2.73 2.73 0 0 1 -.18.91c-.07.14.13.2 0 .28a.47.47 0 0 1 -.17 0l.15.1c.1.07.1.16 0 .25s0 .1.07.12l.23.05c-.2.07-.43.07-.37.38 0 .06-.2.1 0 .23s-.06.2-.08.3a1 1 0 0 0 0 .16l.2-.12.13-.12a.21.21 0 0 0 0 .13s0 .05 0 0 0 .08 0 .07a.18.18 0 0 1 -.07-.05h-.15v.25l.13.13c.34.06-.17.35.12.43l-.3.16c.2 0 .42 0 .27.27a.13.13 0 0 0 0 .13c.08.13.22.25.24.4s0 .3.16.4 0 .06 0 .08c-.22.17.12.3 0 .4s.1.28.12.4.27.38.4.58.3.78.83.74c0 0 .05.06.06.1 0 .25.16.16.3.06a.23.23 0 0 1 .2 0 2.3 2.3 0 0 1 .26.52c0 .1 0 .15.18.18a4.21 4.21 0 0 0 .47.18h.08l-.06.07c0 .2.2.08.3.16.3.3.1-.18.22-.14.16.45.16.45.64.36 0 0 0-.05.05-.08a3.37 3.37 0 0 1 -.34-.09v-.1c0-.04 0-.05.07-.08.2.18.38.23.47-.1l.22.22.2-.24.14.22c.12-.2.32 0 .38 0s.28.15.42.05l.1-.1v.1l.5.06c.06-.1.3.18.26-.13h.12c.01 0 0 .23.15.1s.2 0 .28-.06.14-.16.2-.24.13-.14.22-.12a.61.61 0 0 0 .63-.31v.24a2 2 0 0 0 .05.23 2.4 2.4 0 0 0 .18-.5v.15c0 .08-.06-.06-.06-.1a2.61 2.61 0 0 1 0-.28s.08 0 .12.2c.15.14.4.3.38 0 0-.05.08-.13.13-.15l.63-.2-.26-.12a1.91 1.91 0 0 0 .88-.32l.1-.1v.1a1.68 1.68 0 0 0 .25-.62.25.25 0 0 0 -.12 0 .24.24 0 0 1 -.08.09v-.08a.29.29 0 0 1 .1 0 1 1 0 0 1 .12-.15l.13-.12c-.13-.23-.12-.24.13-.25v-.25a.31.31 0 0 1 0 .12s-.07-.06-.07-.1v-.28c0-.1.08 0 .12.2 0 .16.1.15.1.13a2 2 0 0 1 .09-.44c.1-.17-.14-.25-.06-.4zm-.07-2.72v.04zm-11.1-1v-.08zm.12 1.75-.06-.05h.07zm.6-2.9h.1a.18.18 0 0 1 -.09 0zm.38 0a.32.32 0 0 1 .18-.47.33.33 0 0 1 -.18.48zm2.6-1.8h.13a.18.18 0 0 1 -.09 0s-.02.03-.04.01zm.1.43a.35.35 0 0 1 -.09-.17l.07-.05.17.17s-.13.08-.15.06zm.47-.36v-.12zm.13 5.25a.18.18 0 0 1 0-.09v.08zm.37-5.5v.08zm0 5.22a.64.64 0 0 1 -.21-.18h.1a.21.21 0 0 1 .13.19zm.23.26-.08-.05c.12.04.12.06.12.06zm0-.1.06.07zm0 4.84-.08-.05h.1zm.1-10-.16-.08.16-.05s.06 0 .1.07zm.1.07.06.07zm.3.2v-.13zm.17-.36v-.08c0-.03 0 0 0 0a.59.59 0 0 1 0 .08zm3.4 9.5v-.08c0-.03 0 0 0 0zm2-2.25v-.08a.12.12 0 0 1 0 .08z"/><path d="m106.32 16a0 0 0 0 0 0 0zm8.76 4.92v-.05a.29.29 0 0 0 0 .05zm-40.95-5.02h.05z"/><path d="m85.32 14.25a.18.18 0 0 0 -.12 0c0 .05 0 .07-.08.08s0-.07 0-.07h.1v-.12c-.1 0-.25.06-.3-.12s-.1-.12-.1-.15.1-.07.16-.1 0 .1 0 .1-.1.1-.1.15h.3c0-.4 0-.4-.34-.37a.28.28 0 0 0 -.16 0c-.1.08-.1.06-.14 0a1.15 1.15 0 0 0 -.12-.25l-.1-.1h.1a1.64 1.64 0 0 0 -.25-.22.2.2 0 0 1 -.08.08v-.07h.1v-.23c-.2.17-.28-.06-.4-.14a.77.77 0 0 0 -.57-.23.24.24 0 0 1 -.08.09v-.08h.1a.34.34 0 0 0 -.24-.5s-.1.13-.23 0 .13-.27-.08-.38-.28.23-.4 0a.34.34 0 0 0 -.09-.08c-.1-.08-.23-.2-.34-.2-.4 0-.64-.27-1-.58a.42.42 0 0 0 .12.36s.07.05 0 0 0 .16 0 .16-.14-.1-.13-.2l-.3-.2c-.1-.08-.2-.1-.1.13v.16s-.15-.1-.14-.2c-.17 0-.26 0-.27-.2s-.12-.22-.23-.4l-.38.38c-.07-.05-.2-.2-.26-.17-.2.1-.5 0-.57.25v.08l-.07-.06a.47.47 0 0 0 -.15 0l-.1.1v-.1c-.53-.1-.4.38-.62.72l-.2-.36h-.08a3 3 0 0 0 .18.35v.08l-.07-.06c-.25-.06-.4 0-.47.2a1 1 0 0 1 -.17.3c-.06.1-.12.06-.17 0a2.12 2.12 0 0 1 -.11-.21l-.1.1c-.05.3-.05.3-.3.2-.1 0-.18 0-.15.1v.08l-.08-.06c-.25 0-.3.24-.36.38-.18.42-.15.43-.53.45v.13c-.17 0-.28 0-.26.2s.1.27-.12.3c0 .15.1.4-.2.4 0 .25-.2.4-.3.6l.1.08h-.1l-.16.13c-.15.16-.1.45-.35.56l.1.06.2.15v.08l-.08-.06c-.26.05-.26.3-.42.43s-.05.06.1.15.1.33 0 .35c-.37.07-.06.16 0 .24a.74.74 0 0 0 .09.12l-.4.07a1.19 1.19 0 0 1 .16.16 1 1 0 0 1 .05.18h-.2a.77.77 0 0 1 .07.26c0 .1 0 .18-.06.28s.06 0 .12 0h.07v.07a1 1 0 0 0 0 .32c0 .08.2.1 0 .23s0 .14.07.22.13.1.12.15a.8.8 0 0 1 -.11.25l.1.06c.12-.18.17 0 .3-.08s0-.08 0 0 .1 0 .08.06-.06.06-.1.08a.33.33 0 0 0 0 .15s0 .05 0 0 0 .08 0 .08l-.08-.06h-.14l.2.72.1-.47.34.4.08-.1v.1h.2c.05 0 0 .1 0 .17-.08.22.08.2.24.15-.05 0 .08 0 .08 0l-.06.07a.67.67 0 0 0 0 .24l.17-.1h.07s.1-.05.06 0a.22.22 0 0 1 .18 0 .62.62 0 0 1 -.19.07v.08c0 .01.33-.06.46 0s.28.23.43.33a.88.88 0 0 0 .32.12.22.22 0 0 0 .16-.05.31.31 0 0 0 0-.17l.1.16c0 .07 0 .16.1.2s.28.08.37.16c.28.27.25-.06.35-.16.18.35.18.34.62.27.13 0 .34-.05.4 0s.2-.1.3 0a.25.25 0 0 1 0-.12s0-.07.08-.1 0 .07 0 .1a.48.48 0 0 1 0 .12h.25c.1 0 .2-.2.32 0 .16-.23.2 0 .3.06a.15.15 0 0 0 .13 0c.13-.12.22 0 .3.06s.3.14.44 0a1.64 1.64 0 0 1 .16-.13h.08l-.06.07c0 .18.13.12.22.14l.08-.1v.1l.35-.25c-.05 0-.07-.05-.08-.08s.07 0 .07 0a.42.42 0 0 1 0 .1c.14 0 .24.2.36 0s.2-.12.25-.1.16.1.22 0 .25-.43.52-.15l.17-.07c-.1-.08-.1-.15 0-.22s.35-.1.4-.32.4 0 .5-.2v-.16c-.37-.12.1-.4-.1-.54l.23-.2a.25.25 0 0 1 0-.12l.08-.1c.03-.04 0 .07 0 .1v.12l.38-.37s-.08 0-.1-.05a1.83 1.83 0 0 1 -.13-.16h.23v-.14c0-.03-.2-.22.07-.22.07 0 .13-.07.2-.1v-.17a.48.48 0 0 1 -.12 0l-.1-.08a.25.25 0 0 1 .11 0h.12l.13-.13c0-.16-.2-.33 0-.5 0 0-.13-.08-.12-.1s0-.34.24-.4a.94.94 0 0 1 .22-.66s-.07-.12-.12-.17-.07 0-.08 0 0 .08 0 .1 0 .05-.08.1a.65.65 0 0 1 0-.6.38.38 0 0 1 -.07-.23h.08a1.1 1.1 0 0 1 0 .16v.1a.43.43 0 0 1 .17 0c0-.22 0-.42-.17-.62s-.1-.38.17-.63c-.13-.07.36-.2 0-.26.36-.08.34-.24.3-.32zm-11.43 4h.1zm.1-.62v-.04zm.8 2.37v-.08c0-.03 0 0 0 0zm.4-.15v.08zm0 .62a.12.12 0 0 1 0-.08zm.26-6.9a.18.18 0 0 1 -.07 0s0 .05 0 0 .06.03.05.03zm.35 6.87h.1zm1.76-8.44v-.08zm4.44 9.36v-.05a.19.19 0 0 1 .08 0zm.48-9.36v-.08a.12.12 0 0 1 0 .08zm1.4 8.38v-.04zm.63-6.13v-.08s.02.05 0 .08zm.38 2v-.08c0-.03 0 0 0 0l.05.08zm0-1.5-.07-.1.07-.14s.06.07.06.1a.94.94 0 0 1 -.06.15z"/><path d="m75.37 20.84a.13.13 0 0 1 0-.05zm5.63-9.67h-.07l.1.07zm-.45-.11-.1-.06v.05h.15zm-6.95 7.14a.06.06 0 0 1 0 0zm.5 1.18a.37.37 0 0 0 0 .11v-.14c0-.07.01.02 0 .03z"/><path d="m21.53 16.5v-.08h.08a.41.41 0 0 0 -.08-.13c-.23-.16-.28-.3-.13-.45a.7.7 0 0 0 .1-.8c-.26 0 0 .3-.25.4a3.08 3.08 0 0 1 0-.43c0-.15.16-.08.25-.1s-.23-.3 0-.46c0 0 0-.13-.05-.15a.54.54 0 0 1 -.21-.54s-.08-.07-.1-.07c-.15.18-.26-.15-.4 0a.65.65 0 0 0 -.12.15c0 .05-.05.07-.08.08s0-.07 0-.07h.1v-.12a2.26 2.26 0 0 0 -.28-.25.24.24 0 0 1 -.09-.08h.08a1 1 0 0 1 0 .1h.25l.12-.13a2.17 2.17 0 0 0 -.3-.23c-.05 0-.2.24-.2 0s-.28-.58-.44-.86l-.27.26a5.12 5.12 0 0 0 -.44-.48.23.23 0 0 1 -.07-.06v-.08h.08c-.08-.16-.13-.34-.4-.2a.24.24 0 0 1 -.35-.21c0-.1 0-.24-.13-.2s-.35-.16-.4.15c0 .13-.13.12-.23 0a.19.19 0 0 0 -.12 0 .48.48 0 0 0 -.05.17.83.83 0 0 1 -.09-.16v-.16c-.2 0-.4-.12-.43.1 0 0 0 .1-.06.08s-.06-.07-.1-.1c-.16-.06-.24-.15-.36 0s-.24 0-.3.1a.63.63 0 0 0 -.07.32v.07h-.24c-.04 0-.05.06-.07.08s0-.07 0-.07a.25.25 0 0 1 .09 0c0-.12 0-.24-.12-.25l-.1.1v-.1a1.58 1.58 0 0 1 -.12-.15c-.1-.2-.18-.2-.38-.1-.1-.22-.26-.16-.37-.06a2 2 0 0 0 -.45.58v.07h-.08c-.16-.07-.3-.16-.35-.13s-.2.15-.36 0-.22 0-.3.13 0 .17-.1.2-.1-.1-.23 0-.22 0-.22.17v.3c0 .07-.2.15-.24 0s-.1-.06-.13-.1-.06-.13-.13 0a1.3 1.3 0 0 0 -.25.57s-.05 0-.12.1l-.18-.32c-.08.15-.16.23-.16.32s.05.2 0 .32-.23.33-.2.35c.17.17-.17.23-.06.36-.12.1-.1 0-.12-.08s-.08-.08-.1-.07c-.17.1-.18.2 0 .4a0 0 0 0 1 0 0h.08l-.06.07c-.14.18-.12.42-.37.44l.32.38c.1.13 0 .06 0 .1h-.43c0 .1-.05.2.14.26s.15.08 0 .24v.12c.23.06.13.22.1.34a2.41 2.41 0 0 0 -.1.66.3.3 0 0 0 .14 0c-.05 0 .08 0 .08 0l-.06.07-.1.14v-.1c-.24.16-.1.38-.1.58.13 0 .2.24.4.08h.16a.51.51 0 0 1 -.07.17c-.06.1-.22.12 0 .2s0 .07-.07.1a.68.68 0 0 0 -.07.2h.2v.16a.78.78 0 0 1 -.21.09l.2.08c.3.1.34.17.17.5.1 0 .1 0 .15.17s.2.24.18.3.07.26.1.4a.25.25 0 0 0 .18.13c.22 0 .45 0 .3.34.24 0 .3.32.5.4 0 0 .33-.1.15.17a2.49 2.49 0 0 0 .19.23c.06.1 0 .08 0 .12l.12.12a1.55 1.55 0 0 0 .91.38s.1 0 .1.05c0 .32.15.14.22.05.22-.28.34-.3.68-.1.06 0 .16.13.18.1s.2-.18.35 0 .23 0 .35-.07a2.14 2.14 0 0 1 .26-.19s.15.1.22.22a.23.23 0 0 0 .4 0c.16-.2.4-.08.57-.18s.2.07.32.1a2.56 2.56 0 0 1 .22-.4c0-.1.17-.17.25-.07s.27 0 .4 0 .1-.16.17-.23a1 1 0 0 1 .17-.12l.11-.3.1.1h-.1v.32l.5-.5c.15-.13.18-.1.2-.07.24.23.25 0 .32-.14l-.1-.08h.1a.21.21 0 0 0 0-.13.23.23 0 0 1 -.09-.07h.07a.25.25 0 0 1 0 .09h.12a.25.25 0 0 1 0-.12s0-.07.08-.1 0 .07 0 .1v.12l.24-.07c-.12-.1-.16-.17.06-.2 0 0 .05-.15.05-.24a.23.23 0 0 1 -.09-.07h.08a.25.25 0 0 1 0 .09h.1c.01 0 .15.05.22 0 .25 0 .17-.15.1-.3s.05-.1.08-.14.08-.2-.06-.23-.18 0-.1-.12a1.19 1.19 0 0 0 .12-.24c.1-.26-.13-.07-.18-.1a.23.23 0 0 1 -.07.09v-.08a.38.38 0 0 1 .1 0 .84.84 0 0 1 .13-.21.86.86 0 0 0 -.21 0 .35.35 0 0 0 -.13.08v-.23l-.1-.08a.3.3 0 0 0 .12-.08h.08s0 .05-.06.08a.35.35 0 0 0 0 .15c.18 0 .47 0 .46-.17a.78.78 0 0 1 .05-.37c.3-.2.26-.5.24-.78s0-.26.22-.35.2-.18 0-.43a.24.24 0 0 1 -.11-.02zm-10.7.74h-.08v-.05zm.34-1.7s.08 0 .08.05a1.41 1.41 0 0 1 0 .18c-.05 0-.1-.05-.1-.07a.53.53 0 0 1 .02-.16zm0 .46h-.08zm.1 2.15a.49.49 0 0 1 -.05-.16s0-.06.07-.1a.68.68 0 0 1 0 .17.18.18 0 0 1 .02.1zm1.14 2v-.15zm1.59-8.15a.59.59 0 0 1 0-.08zm.9-.38c-.07.1-.07 0-.06-.15s0-.06.06-.1a.45.45 0 0 1 .06.12v.34c0 .1-.1.02-.1-.22zm.38.26v.08h-.05zm0 9.25a.18.18 0 0 1 0-.09v.08zm.35.1h.1zm.15-.48v-.08zm.2.62h-.1v-.1l.17.07s-.02.02-.1.03zm.04-7.64h-.08.1zm.63 7.88-.08-.05h.1zm.47-.5h.01zm.8-1.1h-.08.1zm1.1-.37v-.1l.05.05zm.3-4.63h-.03zm.72-.25h.08zm.27 4.25v-.08zm.15.6-.08-.05h.08zm.23-2.6v-.08a.2.2 0 0 1 0 .08zm0-1.4h.08a.12.12 0 0 1 -.1 0zm0-1.12h-.08zm.42-.17h.04zm.07.44h-.05l.05-.08s.03.05.02.08zm.08.84v-.1l.05.05-.05.08s.02-.03.02-.04z"/><path d="m16.85 11.4h-.05a.14.14 0 0 0 -.09 0 .5.5 0 0 0 .13 0zm26.76 1.35v.05h.06a0 0 0 0 1 -.06-.05zm-.8 5.7a.43.43 0 0 1 0 0zm2.09-6.45-.05.05h.05z"/><path d="m52.8 16.8h.1s0-.08-.1-.12a.21.21 0 0 1 -.16-.14l.08-.1.17.23h.1a2.13 2.13 0 0 0 -.56-1.13c-.05-.05 0-.16-.1-.2s-.06-.15 0-.23.13 0 .18 0 .17.25.33.07l-.36-.35c-.13-.1-.15-.2.07-.22a.5.5 0 0 0 0-.13c-.1-.14-.16-.06-.23 0-.13-.12-.32-.23-.08-.43v-.16l-.16.1c-.25.1-.2-.1-.2-.23h-.38l-.1-.1c.2-.16-.2-.35 0-.5s.07-.13 0-.18-.25-.08-.25-.13c0-.34-.33-.3-.53-.4 0-.32-.37-.23-.53-.4h-.08c-.14.22-.2-.12-.36 0s-.2-.06-.32-.12-.2-.1-.33 0c0-.07 0-.17-.1-.2s-.1.16-.22 0-.18-.08-.23.06 0 .1-.07.13c-.06-.23-.4 0-.43-.23a2.08 2.08 0 0 0 -.25 0s-.07 0-.1.08h.17l.1.1-.28.2c-.14.1-.4 0-.35-.12s-.14-.28-.1-.43c0 .13-.2.2-.12.4s-.08.22-.15.4a2.36 2.36 0 0 0 -.11-.4c-.4 0-.45-.23-.5-.63l-.12.34-.16-.12v.24c0 .08-.1.17-.13.26s-.12.13-.22.07a2.07 2.07 0 0 1 -.35-.22c-.23-.24-.33-.07-.37.14v.07h-.08a.75.75 0 0 0 -.19.07c-.18-.22-.2 0-.22.1s-.07 0-.1 0 0 .18 0 .22-.07.18-.1.27c-.07-.14-.34 0-.33-.26v-.36l-.38.38a.66.66 0 0 0 0 .26s0 .05 0 0 0 .07 0 .07h-.08a1.63 1.63 0 0 1 -.78.19s-.07 0-.1.06c.14.16.38.3.2.58l-.38-.52c-.17.2 0 .35.06.5-.2.06-.17.27-.25.4s-.23.23.07.22v.1c0 .01-.14.1-.2.1s-.1-.12-.13-.18l-.22.22.1.08-.1.05c0 .07.1.2.08.22a.25.25 0 0 0 .05.21c.05.03 0 .2.06.32v.08l-.08-.06c-.07 0-.13.07-.12.1a3.76 3.76 0 0 1 .15.8h.1c-.05 0 .08 0 .08 0l-.06.08c0 .1-.06.17 0 .2.25.24.08.35-.13.45v.13c.2 0 .1.15.13.25l.1.08h-.1v.13l.1.08h-.1a2.15 2.15 0 0 0 .18.24c.13.15.42.17.34.47a.5.5 0 0 0 .24 0c-.05 0 .08 0 .08 0l-.06.07a.37.37 0 0 0 .08.2c-.23.1 0 .2 0 .3s.38.08.14.3v.16a.3.3 0 0 1 0 .43.37.37 0 0 0 0 .21c0 .22.27.25.4.4a.45.45 0 0 0 .17.08c-.13.08-.08.14 0 .23a.75.75 0 0 1 .15.24l.12-.07a.63.63 0 0 0 0-.23.23.23 0 0 1 -.09-.07h.08v.08c.18-.15.32 0 .46 0l-.07.24.1.1h-.1c.08.06.2.1.24.2.12.3.1.3.2.3s.43-.12.47.2h.08c.01 0 .2-.07.3 0s.2.25.35.08a.17.17 0 0 1 .13 0c.12.1.2.27.4.1.06-.06.27 0 .4.05s0-.06 0-.1a.23.23 0 0 1 -.09-.07h.08a.25.25 0 0 1 .26.17c.1.08.2.22.25.2a.51.51 0 0 0 .25-.21.29.29 0 0 1 -.08-.07h.07a.25.25 0 0 1 0 .09c.16.06.4-.15.4.16 0 0 0 .06.07.1.17-.23.34-.08.52 0s.2-.1.28-.17c-.15-.13-.12-.18.08-.17a1 1 0 0 0 .32-.05h.07a.35.35 0 0 1 0 .08v.12c.22 0 .4-.14.38-.35s.1-.1.15-.1.13.06.18 0 .2-.16.2-.14c.25.2.12-.1.2-.13h.1c.2.1.22-.06.27-.17-.1 0-.25.06-.26-.13h-.12l.08-.1v.1h.1l.25-.06-.1.22a.73.73 0 0 0 .62-.06l.16-.07c.1 0 .2.05.23-.12s.1-.2.1-.32 0-.24.26-.3c.08-.1.07-.37.3-.14 0 0 .1-.08.08-.1a.73.73 0 0 0 -.15-.25.23.23 0 0 1 -.09-.07h.08c.01 0 0 .06 0 .1h.24c-.07-.1-.15-.23.1-.22a.21.21 0 0 0 0-.16c-.1-.1-.14-.17 0-.27s0-.5.26-.7l-.12-.1a1.25 1.25 0 0 0 -.12-.08c.28-.1.06-.4.16-.5s0-.28 0-.42l-.1-.08h.1l.13-.25zm-10.43-1v-.08a.12.12 0 0 1 0 .08s.02-.05 0-.04zm.13-.87v.07h-.05zm0 .5a.36.36 0 0 1 0-.09v.05zm.24-1.63s0 .05 0 0 0 .07 0 .07h-.07zm0 4.35h.08a.12.12 0 0 1 -.09-.04zm.15-1a.18.18 0 0 1 0-.09v.05zm0-1.15h-.05.1zm0-.3a.59.59 0 0 1 0 .08s-.05-.06-.05-.1zm0-1.44v-.08h.11v.1zm.11-.26a.59.59 0 0 1 0-.08zm.5 6.23v-.08h.16v.1zm3.05-8v-.08c0-.03 0 0 0 0zm1.1 4.35h.08a.12.12 0 0 1 -.09.02zm.15 1.9v-.08c0-.03 0 0 0 0a.59.59 0 0 1 0 .08zm.38-.75h-.05l.05-.08s0 .07-.01.1zm.6 1h-.05.1zm1 2.64a.47.47 0 0 1 -.16 0v-.07a.55.55 0 0 1 .18 0s.01.07-.01.07zm.32-.2a.29.29 0 0 1 -.07.08v-.07a.25.25 0 0 1 .09 0zm.82-8.28v-.05a.59.59 0 0 0 0-.08l.05.05zm.25.12.05.05-.05.08v-.05a.59.59 0 0 0 .01-.08zm0 .36h.1zm.14 7.4v-.08s.01.05 0 .08zm.25-6a.59.59 0 0 1 0-.08zm.25 4.5v-.08a.12.12 0 0 1 0 .08s.02-.01 0 0zm.5-.52h.08zm0-.3a.59.59 0 0 1 0 .08zm0-1.8v-.08h.16l.06.1a.55.55 0 0 1 -.2-.01zm.27 2.1h-.08z"/><path d="m42 15.38h-.06zm-23.65 6.04v.1a.65.65 0 0 0 .15.18h.08a.85.85 0 0 0 0-.09 1.33 1.33 0 0 0 -.12-.16.42.42 0 0 0 -.11-.04zm.27-.07a1 1 0 0 0 .17-.12.3.3 0 0 0 0-.1h-.25zm99.13-5.22.3-.22c-.2 0-.35-.14-.43.1h-.12v.25c.1-.02.24.06.25-.12zm-75.83.75a.75.75 0 0 0 -.07-.12l-.17.17.16.12c.04-.05.08-.12.08-.17zm75.93.78h-.23v.25zm-32.9 1.47h-.12v.25c.18-.01.1-.16.12-.25zm26.13 2.57a.75.75 0 0 0 0 .16l.1-.13-.08-.1s-.03.06-.02.08zm-69.15-4.32a.21.21 0 0 0 -.1 0 .39.39 0 0 0 .1.08.57.57 0 0 0 .13 0v-.12z"/><path d="m85.33 17.3a.67.67 0 0 0 .07.18l.06-.1-.08-.13s-.06.05-.05.06zm-43.47-.17h-.16v.08h.25c-.05-.05-.07-.08-.1-.08zm64.14-.88h-.1s.07.07.1.08.08 0 .12 0v-.13zm-93 5.12v.1a.28.28 0 0 0 .08-.11v-.12h-.08a.48.48 0 0 0 0 .12zm-.53-9.3a1.2 1.2 0 0 0 -.07.19.48.48 0 0 0 0 .12s.1-.05.12-.1a.63.63 0 0 0 -.05-.22zm-1.9 3.68h-.16v.08h.25c-.05-.04-.07-.08-.1-.08zm63.65-.87a.21.21 0 0 0 -.1 0 .87.87 0 0 0 .1.08h.13v-.12a.56.56 0 0 0 -.13.04zm-58 6.82-.18-.07h-.12s.05.1.1.12.1-.02.2-.05zm4.37-8.07h.12v-.25h-.12zm54.5-.45.06.07h.06a.25.25 0 0 0 0-.09s-.1.01-.12.02z"/><path d="m20.85 13.38-.13-.13v.13zm63.7-.05-.1-.08v.13zm32.16.03-.06-.07-.06.06zm-95.77.14-.06-.07h-.06zm30.94-.07-.08.06.06.05zm-.1.13v-.06a.25.25 0 0 0 -.09 0v.07zm.24.12-.07.06v.05zm22.74.12.05.08h.06a.3.3 0 0 0 0-.1zm-63.5-.72v-.03.08zm106.12.72-.08.06.06.06zm-32.04.33-.14-.13v.13zm.1.07-.1-.08v.12zm32.02-.05-.08.1h.13z"/><path d="m117.6 14.33-.1-.08v.13z"/><circle cx="117.43" cy="14.44" r=".09"/><path d="m41.7 14.54.1.1v-.13zm75.92.1-.12-.13v.13zm.08.1-.06-.07h-.06zm-32.25.06h.07l-.06-.07zm-74.87.1-.08.1.06.05.06-.07zm32.72-2.23a.12.12 0 0 0 0 .08z"/><path d="m21.6 15-.1-.08v.08zm-11.2 0 .1.1v-.1zm75 .13v-.13a.18.18 0 0 0 0 .13zm-32.7.37v-.08a.2.2 0 0 0 0 .08s-.02-.01 0 0zm-42.18.05.05.08h.06a.3.3 0 0 0 0-.1zm32.93-3.12v.07h.06a.25.25 0 0 0 0-.09zm-21.72 3.5h-.08zm20-.06v.08a.2.2 0 0 0 0-.08zm2.47-3.7.06.07h.06a.25.25 0 0 0 0-.09s-.1.01-.12.02zm41.25 3.88.07.05-.02-.1zm22.23-4.05.1.1v-.1zm-29.2-1.23-.1.1h.13zm27.7 5.7.1-.1h-.13zm-53.05.22-.13-.08v.12z"/><path d="m52.9 16.88h.1v-.13h-.1zm.1.05.08.06a.14.14 0 0 1 0 0l-.06-.07zm-.12.27-.1-.08v.12zm64.9.14v-.13zm-44.42.2.06.08a.3.3 0 0 0 0-.1s-.04.01-.06.02zm-31.4.12.1.08v-.12zm43.3.08.06-.07-.07.06zm-43.05.55a.18.18 0 0 0 0 .09v-.1zm43.1.04-.1-.1v.13zm30.7-6.66h-.07v.06zm-30.94 6.83.13-.12h-.13zm0 .18.08.06-.06-.07zm-42.63.12.05.08v-.1zm-31.24.2.07-.06v-.05h-.1c-.02 0 .01.1.02.1zm106.3-.07.07.06-.06-.07zm-74.64.2.07-.06v-.07h-.1l.03.12zm30.78 0 .07-.06v-.07h-.1a.74.74 0 0 0 .02.12zm11.3-.05.06.06.06-.08zm-39.38-7.38v-.08s-.05 0 0 0 0 .05 0 .08zm71.9 7.5-.1-.08v.12z"/><path d="m108.27 11.55-.07.06.06.06s0-.1.01-.12zm8.97 7.83.13-.13h-.13zm-69.14-7.83-.07.06.05.06zm-1.16-.01v.13a.18.18 0 0 0 0-.13zm37.4 8.32.1-.1h-.13zm32.55.24.1-.1h-.13zm-101.25-8.7-.1.1h.13zm36.36 8.9.08.05-.06-.07zm22.6.2.12-.12h-.12zm9.6-.05v.05l.06-.07z"/><path d="m20.1 20.63.13-.13h-.13zm54.42-.01.08-.06v-.06h-.1a.97.97 0 0 0 .02.12z"/><path d="m20 20.75.12-.12h-.12zm27-9.45h-.05v.13zm37 9.5a.18.18 0 0 0 0 .09v-.1zm-39.92.13.06.07a.25.25 0 0 0 0-.09s-.04.01-.06.02z"/><path d="m18.83 21.13h.17v-.13zm25.37-.13.13.13v-.13zm-31.28.17.1.08v-.12zm37.72.3v-.08c0-.03 0 0 0 0zm63.36-.03.08.06-.06-.07zm-99.43.27v-.08zm.43.04.08-.06v-.05h-.1l.02.1zm2.7-.06.07.06-.06-.07zm91.83-10.88-.07.06.06.06a.35.35 0 0 0 .01-.12zm2.83 10.93.1-.1h-.13zm1.64-.06v.08-.08c0-.03 0-.01 0 0zm-34.94.2.08-.1h-.14zm2.27.14.08-.1h-.12z"/></svg>