<svg height="32" viewBox="0 0 128 32" width="128" xmlns="http://www.w3.org/2000/svg"><g fill="#de3e16" stroke="#de3e16"><path d="m106.58 13.26a0 0 0 0 0 0 0z"/><path d="m111.5 10.75s0 .02 0 0z"/><path d="m117.5 17.72.12-.09a.56.56 0 0 0 -.05-.23.44.44 0 0 1 0-.39.47.47 0 0 0 0-.61.71.71 0 0 1 -.08-.15l-.13-.15.13-.1c0-.09-.06-.22.09-.25h.28a.22.22 0 0 0 -.17-.09.86.86 0 0 0 -.17 0 1.7 1.7 0 0 0 .14-.1c.11-.11.11-.13 0-.42.15-.15.09-.21-.09-.23s0-.15 0-.22l-.13-.13-.11-.08h.11v-.13c-.24-.06-.08-.25-.13-.37-.23.12-.23.12-.25-.1v-.06c0-.23 0-.31-.28-.15 0 0-.16-.06-.2-.12s-.05-.19.1-.2a.78.78 0 0 0 0-.22c-.1-.21-.33-.41-.31-.59 0-.37-.19-.51-.4-.69-.18 0-.12.14-.08.26s0 .05 0 0 0 .07 0 .07h-.07a3 3 0 0 1 -.55-.69.37.37 0 0 0 -.16-.17s-.13.06-.17.11a1.33 1.33 0 0 0 -.09.21.9.9 0 0 1 -.2-.19c-.31-.42-.5-.47-1-.29 0 0-.08 0-.12 0a.2.2 0 0 1 -.08.08s0-.07 0-.07 0 0 .08 0a2.36 2.36 0 0 0 -.2-.23c-.17.21-.27 0-.39-.07a.24.24 0 0 0 -.13 0c-.21.18-.37.06-.52-.09s-.08 0-.13 0c0 .4-.21.09-.35.07s-.23-.07-.22.12c0 0 0 .05 0 0s0 .07 0 .07h-.08a.7.7 0 0 0 -.4-.09 1.16 1.16 0 0 0 -.66.14s-.1 0-.1-.05c0-.21-.17-.12-.24-.19s-.09 0-.13 0c0 .31-.26.44-.33.72l-.19-.39-.32.26s0 .1 0 .11c.4 0-.09.18 0 .25l.1.08a.3.3 0 0 0 -.1.07.24.24 0 0 1 -.08.09s0-.07 0-.08a.38.38 0 0 1 .1 0v-.46c-.24.08-.25-.12-.3-.23-.15.2-.3.4-.46.63a.23.23 0 0 1 -.07.09s0-.07 0-.08h.07l-.13-.13-.1-.12h-.22l.09.17a.78.78 0 0 0 0 .07s0 0 0 0 0 .08 0 .08l-.08-.06c-.14 0-.27-.08-.28.09l.11.08-.11.05c0 .17-.13.11-.23.12s-.22 0-.23 0c0 .27-.32.26-.45.42a1.21 1.21 0 0 0 -.29.56s0 0 0 0 0 .07 0 .07h-.07c-.11 0-.24-.35-.27 0a2.73 2.73 0 0 1 -.18.91c-.07.14.13.2 0 .28a.47.47 0 0 1 -.17 0l.15.1c.1.07.09.16 0 .25s0 .11.07.12l.23.05c-.21.07-.43.07-.37.38 0 .06-.19.1 0 .23s-.06.19-.08.3a1 1 0 0 0 0 .16l.2-.12.13-.12a.21.21 0 0 0 0 .13s0 .05 0 0 0 .08 0 .07a.18.18 0 0 1 -.07-.05h-.15v.25l.13.13c.34.06-.17.35.12.43l-.31.16c.19 0 .42 0 .27.27a.13.13 0 0 0 0 .13c.08.13.22.25.24.39s0 .3.16.4 0 .06 0 .08c-.22.17.12.3 0 .41s.09.28.12.41.27.38.39.58.29.78.83.74c0 0 .05.06.06.1 0 .25.16.16.29.06a.23.23 0 0 1 .2 0 2.3 2.3 0 0 1 .26.52c0 .11 0 .15.18.18a4.21 4.21 0 0 0 .47.18s0 0 0 0 .08 0 .08 0l-.06.07c0 .2.21.08.29.16.29.29.09-.18.22-.14.16.45.16.45.64.36 0 0 0-.05.05-.08a3.37 3.37 0 0 1 -.34-.09s0-.07 0-.11 0-.05.07-.08c.2.18.38.23.47-.1l.22.22.19-.24.14.22c.12-.21.32 0 .38 0s.28.15.42.05l.09-.11v.11l.5.06c.06-.09.31.18.26-.13h.12s0 .23.15.09.21 0 .28-.06.14-.16.2-.24.13-.14.22-.12a.61.61 0 0 0 .63-.31v.24a2 2 0 0 0 .05.23 2.4 2.4 0 0 0 .18-.5s0 0 0 .08-.06-.06-.06-.09a2.61 2.61 0 0 1 0-.28s.08 0 .12.2c.15.14.41.3.38 0 0-.05.08-.13.13-.15l.63-.19-.26-.12a1.91 1.91 0 0 0 .88-.32l.09-.1v.1a1.68 1.68 0 0 0 .25-.62.25.25 0 0 0 -.12 0 .24.24 0 0 1 -.08.09s0-.07 0-.08a.29.29 0 0 1 .1 0 1 1 0 0 1 .12-.15l.13-.12c-.13-.23-.12-.24.13-.25v-.25a.31.31 0 0 1 0 .12s-.07-.06-.07-.09 0-.18 0-.28.08 0 .12.2c0 .16.09.15.09.13a2 2 0 0 1 .09-.44c.09-.17-.14-.25-.06-.39zm-.07-2.72v.08.05-.09zm-11.1-1s0-.05 0-.08zm.12 1.75-.06-.05s0 0 0 0 .08 0 .07 0zm.61-2.9s0 0 0 0h.09s0 0 0 0a.18.18 0 0 1 -.09 0zm.38 0a.32.32 0 0 1 .18-.47.33.33 0 0 1 -.18.48zm2.61-1.8h.08.05a.18.18 0 0 1 -.09 0s-.02.03-.04.01zm.1.43a.35.35 0 0 1 -.09-.17s0 0 .07-.05l.17.17s-.13.08-.15.06zm.47-.36v-.05-.08zm.13 5.25a.18.18 0 0 1 0-.09s0 0 0 0v.08zm.37-5.5v.08zm0 5.22a.64.64 0 0 1 -.21-.18s.07 0 .1 0 .14.09.13.19zm.23.26-.08-.05c.12.04.12.06.12.06zm0-.09.06.07zm0 4.84-.08-.05s0 0 0 0h.09zm.09-10-.16-.08.16-.05s.06 0 .09.07zm.11.07.06.07zm.3.21v-.05-.08zm.15-.38s0-.05 0-.08 0 0 0 0a.59.59 0 0 1 0 .08zm3.4 9.5s0-.05 0-.08 0 0 0 0zm2-2.25v-.08s0 0 0 0a.12.12 0 0 1 0 .08z"/><path d="m109.56 21.44s0 0 0 0z"/><path d="m106.32 16a0 0 0 0 0 0 0z"/><path d="m115.08 20.92s0 0 0 0v-.05a.29.29 0 0 0 0 .05z"/><path d="m74.13 15.9h.05z"/><path d="m74.14 19.64s.01 0 0 0z"/><path d="m85.32 14.25a.18.18 0 0 0 -.12 0c0 .05 0 .07-.08.08s0-.07 0-.07h.1v-.12c-.1 0-.25.06-.29-.12s-.1-.12-.09-.15.11-.07.16-.11 0 .09 0 .11-.09.09-.11.15h.29c0-.41 0-.41-.34-.37a.28.28 0 0 0 -.16 0c-.09.08-.11.06-.14 0a1.15 1.15 0 0 0 -.12-.25l-.11-.09h.11a1.64 1.64 0 0 0 -.25-.22.2.2 0 0 1 -.08.08s0-.07 0-.07h.09c0-.09 0-.16 0-.23-.21.17-.28-.06-.4-.14a.77.77 0 0 0 -.57-.23.24.24 0 0 1 -.08.09s0-.07 0-.08h.09a.34.34 0 0 0 -.22-.51s-.09.13-.23 0 .13-.27-.08-.38-.28.23-.4 0a.34.34 0 0 0 -.09-.08c-.11-.08-.23-.21-.34-.21-.41 0-.64-.27-1-.58a.42.42 0 0 0 .12.36s.07.05 0 0 0 .16 0 .16-.14-.09-.13-.19l-.31-.21c-.11-.08-.19-.1-.09.13s0 .16 0 .16-.15-.09-.14-.19c-.17 0-.26 0-.27-.21s-.12-.22-.23-.41l-.38.38c-.07-.05-.21-.2-.26-.17-.2.1-.49 0-.57.25v.08l-.07-.06a.47.47 0 0 0 -.15 0l-.09.1v-.1c-.53-.11-.41.38-.62.72l-.19-.36h-.08a3 3 0 0 0 .18.35s0 0 0 0 0 .08 0 .08l-.07-.06c-.25-.06-.41 0-.47.21a1 1 0 0 1 -.17.3c-.06.11-.12.06-.17 0a2.12 2.12 0 0 1 -.11-.21c-.08.08-.11.09-.11.11-.05.3-.05.3-.3.21-.09 0-.18 0-.15.11s0 0 0 0 0 .08 0 .08l-.08-.06c-.25 0-.29.24-.36.38-.18.42-.15.43-.53.45v.13c-.17 0-.28 0-.26.21s.09.27-.12.29c0 .15.11.39-.21.39 0 .25-.19.41-.29.61l.1.08h-.1l-.16.13c-.15.16-.11.45-.35.56l.1.06.19.15s0 0 0 0 0 .08 0 .08l-.08-.06c-.26.05-.26.31-.42.43s-.05.06.09.15.11.33 0 .35c-.37.07-.06.16 0 .24a.74.74 0 0 0 .09.12l-.4.07a1.19 1.19 0 0 1 .16.16 1 1 0 0 1 .05.18h-.19a.77.77 0 0 1 .07.26c0 .09 0 .18-.06.28s.06 0 .12 0 0 0 0 0 .07 0 .07 0v.07a1 1 0 0 0 0 .32c0 .08.2.1 0 .23s0 .14.07.22.13.11.12.15a.8.8 0 0 1 -.11.25s.09.06.09.06c.12-.18.17 0 .29-.08s0-.08 0 0 .1 0 .08.06-.06.06-.1.08a.33.33 0 0 0 0 .15s0 .05 0 0 0 .08 0 .08l-.08-.06c-.08 0-.14 0-.14 0l.2.72.09-.47.34.41.08-.11v.11h.19s0 .11 0 .17c-.08.22.08.2.24.15s.05 0 0 0 .08 0 .08 0l-.06.07a.67.67 0 0 0 0 .24l.17-.09h.07s.09-.05.06 0a.22.22 0 0 1 .18 0 .62.62 0 0 1 -.19.07s0 .07 0 .08.33-.06.46 0 .28.23.43.33a.88.88 0 0 0 .32.12.22.22 0 0 0 .16-.05.31.31 0 0 0 0-.17l.09.16c0 .07 0 .16.1.19s.28.08.37.16c.28.27.25-.06.35-.16.18.35.18.34.62.27.13 0 .34-.05.41 0s.19-.09.29 0a.25.25 0 0 1 0-.12s0-.07.08-.11 0 .07 0 .11a.48.48 0 0 1 0 .12h.25c.11 0 .21-.21.32 0 .16-.23.21 0 .31.06a.15.15 0 0 0 .13 0c.13-.12.22 0 .3.06s.3.14.44 0a1.64 1.64 0 0 1 .16-.13s0 0 0 0 .08 0 .08 0l-.06.07c0 .18.13.12.22.14l.08-.11v.11l.35-.25c-.05 0-.07-.05-.08-.08s.07 0 .07 0a.42.42 0 0 1 0 .1c.14 0 .24.19.36 0s.21-.12.25-.09.16.1.22 0 .25-.43.52-.15c0 0 .12-.05.17-.07-.11-.08-.09-.15 0-.22s.35-.11.39-.32.39 0 .51-.2v-.16c-.37-.12.11-.39-.11-.54l.23-.21a.25.25 0 0 1 0-.12s.05-.07.08-.11 0 .07 0 .11v.12l.38-.37s-.08 0-.1-.05a1.83 1.83 0 0 1 -.13-.16h.23c0-.06 0-.14 0-.17s-.19-.22.07-.22c.07 0 .13-.07.19-.11v-.17a.48.48 0 0 1 -.12 0l-.11-.08a.25.25 0 0 1 .11 0h.12l.13-.13c0-.16-.19-.33 0-.5 0 0-.13-.08-.12-.09s0-.34.24-.41a.94.94 0 0 1 .22-.66s-.07-.12-.12-.17-.07 0-.08 0 0 .08 0 .11 0 .05-.08.09a.65.65 0 0 1 0-.6.38.38 0 0 1 -.07-.23h.08a1.1 1.1 0 0 1 0 .16s0 .05 0 .09a.43.43 0 0 1 .17 0c0-.22 0-.42-.17-.62s-.11-.38.17-.63c-.13-.07.36-.21 0-.26.36-.08.34-.24.31-.32zm-11.43 4h.09zm.11-1.75v.09s0 0 0 0v-.08zm0 1.13s0 0 0 0v-.09.05zm.79 2.37s0-.05 0-.08 0 0 0 0zm0-5.15h.09s-.08 0-.11 0zm.4 5s0 0 0 0 0 0 0 .08zm0 .62s0 0 0 0a.12.12 0 0 1 0-.08zm.26-6.89a.18.18 0 0 1 -.07 0s0 .05 0 0 .06.03.05.03zm.35 6.87s0 0 0 0h.09s0 0 0 0zm1.76-8.45v-.08zm4.44 9.36v-.05a.19.19 0 0 1 .08 0s0 0 0 0zm.48-9.36v-.08a.12.12 0 0 1 0 .08s.02 0 0 0zm1.39 8.38s0 0 0 0v-.09.05zm.63-6.13v-.08s.02.05 0 .08zm.38 2s0-.05 0-.08 0 0 0 0l.05.08zm0-1.5-.07-.11.07-.14s.06.07.06.1a.94.94 0 0 1 -.06.15z"/><path d="m75.37 20.84a.13.13 0 0 1 0-.05z"/><path d="m81 11.17h-.07l.11.07z"/><path d="m80.55 11.06-.09-.06v.05h.15z"/><path d="m73.59 18.2a.06.06 0 0 1 0 0z"/><path d="m74.1 19.38a.37.37 0 0 0 0 .11s0-.07 0-.14.01.02 0 .03z"/><path d="m21.53 16.49s0-.07 0-.08h.08a.41.41 0 0 0 -.08-.13c-.23-.16-.28-.29-.13-.45a.7.7 0 0 0 .1-.8c-.26 0 0 .3-.25.4a3.08 3.08 0 0 1 0-.43c0-.15.16-.08.25-.09s-.23-.3 0-.46c0 0 0-.13-.05-.15a.54.54 0 0 1 -.21-.54s-.08-.07-.09-.07c-.15.18-.26-.15-.41 0a.65.65 0 0 0 -.12.15c0 .05-.05.07-.08.08s0-.07 0-.07h.1v-.12a2.26 2.26 0 0 0 -.28-.25.24.24 0 0 1 -.09-.08s.07 0 .08 0a1 1 0 0 1 0 .1h.25l.12-.13a2.17 2.17 0 0 0 -.3-.23c-.05 0-.21.24-.19 0s-.28-.58-.44-.86l-.27.26a5.12 5.12 0 0 0 -.44-.48.23.23 0 0 1 -.08-.06s0-.07 0-.08h.08c-.08-.16-.13-.34-.39-.2a.24.24 0 0 1 -.35-.21c0-.09 0-.24-.13-.21s-.35-.16-.39.15c0 .13-.13.12-.23 0a.19.19 0 0 0 -.12 0 .48.48 0 0 0 -.05.17.83.83 0 0 1 -.09-.16s0-.16 0-.16c-.2 0-.41-.12-.43.11s0 .1-.06.08-.06-.07-.09-.11c-.16-.06-.24-.15-.36 0s-.24 0-.29.09a.63.63 0 0 0 -.07.32s0 0 0 0 0 .07 0 .07h-.08c-.08 0-.12 0-.16 0s-.05.06-.07.08 0-.07 0-.07a.25.25 0 0 1 .09 0c0-.12 0-.24-.12-.25l-.09.1v-.1a1.58 1.58 0 0 1 -.12-.15c-.11-.19-.18-.21-.38-.1-.09-.22-.26-.16-.37-.06a2 2 0 0 0 -.45.58v.07h-.08c-.16-.07-.3-.16-.35-.13s-.21.15-.36 0-.22 0-.3.13 0 .17-.09.2-.09-.11-.23 0-.22 0-.22.17 0 .23 0 .3-.2.15-.24 0-.1-.06-.13-.1-.06-.13-.13 0a1.3 1.3 0 0 0 -.25.57s-.05 0-.12.11c-.06-.1-.12-.2-.18-.32-.08.15-.16.23-.16.32s.05.2 0 .32-.23.33-.2.35c.17.17-.17.23-.06.36-.12.1-.1 0-.12-.08s-.08-.08-.1-.07c-.17.1-.18.21 0 .39a0 0 0 0 1 0 0h.08l-.06.07c-.14.18-.12.42-.37.44.11.12.21.25.32.38s0 .06 0 .09h-.43c0 .1-.05.21.14.26s.15.08 0 .24v.12c.23.06.13.22.1.34a2.41 2.41 0 0 0 -.1.66.3.3 0 0 0 .14 0s.05 0 0 0 .08 0 .08 0l-.06.07-.11.14v-.11c-.24.16-.1.38-.1.58.13 0 .21.24.39.08h.16a.51.51 0 0 1 -.07.17c-.06.09-.22.12 0 .21s0 .07-.07.11a.68.68 0 0 0 -.07.2h.07.14v.16a.78.78 0 0 1 -.21.09l.19.08c.31.09.34.17.17.5.1 0 .09 0 .15.17s.2.24.18.3.07.26.11.39a.25.25 0 0 0 .18.13c.22 0 .45 0 .29.34.24 0 .29.32.51.4 0 0 .33-.09.15.17 0 0 .13.14.19.23s0 .08 0 .12l.12.12a1.55 1.55 0 0 0 .91.38s.09 0 .09.05c0 .32.15.14.22.05.22-.28.34-.3.68-.1.06 0 .16.13.18.11s.19-.18.35 0 .23 0 .35-.07a2.14 2.14 0 0 1 .26-.19s.15.09.22.22a.23.23 0 0 0 .4 0c.16-.19.39-.08.57-.18s.21.07.32.11a2.56 2.56 0 0 1 .22-.4c0-.09.17-.17.25-.07s.27 0 .41 0 .11-.16.17-.23a1 1 0 0 1 .17-.12l.06-.29.1.09h-.1v.32c.2-.21.34-.36.49-.49s.18-.09.2-.07c.24.23.25 0 .32-.14l-.11-.08h.11a.21.21 0 0 0 0-.13.23.23 0 0 1 -.09-.07s.07 0 .08 0a.25.25 0 0 1 0 .09h.12a.25.25 0 0 1 0-.12s0-.07.08-.11 0 .07 0 .11v.12l.24-.07c-.12-.11-.16-.17.06-.19 0 0 .05-.15.05-.24a.23.23 0 0 1 -.09-.07s.07 0 .08 0a.25.25 0 0 1 0 .09h.09s.15.05.22 0c.25 0 .17-.15.1-.29s.05-.1.08-.14.08-.19-.06-.23-.18 0-.1-.12a1.19 1.19 0 0 0 .13-.26c.1-.26-.13-.07-.18-.11a.23.23 0 0 1 -.07.09s0-.07 0-.08a.38.38 0 0 1 .1 0 .84.84 0 0 1 .13-.21.86.86 0 0 0 -.21 0 .35.35 0 0 0 -.13.08v-.23l-.11-.08a.3.3 0 0 0 .12-.08s0 0 0 0 .08 0 .08 0 0 .05-.06.08a.35.35 0 0 0 0 .15c.18 0 .47 0 .46-.17a.78.78 0 0 1 .05-.37c.31-.21.26-.5.24-.78s0-.26.22-.35.21-.18 0-.43a.24.24 0 0 1 -.11-.02zm-10.69.74h-.08v-.05zm.34-1.71s.08 0 .08.05a1.41 1.41 0 0 1 0 .18c-.05 0-.1-.05-.1-.07a.53.53 0 0 1 .02-.16zm0 .46h-.08zm.1 2.15a.49.49 0 0 1 -.05-.16s0-.06.07-.11a.68.68 0 0 1 0 .17.18.18 0 0 1 .02.1zm1.14 2v-.05-.08s0 0 0 0zm1.58-8.13a.59.59 0 0 1 0-.08zm.89-.38c-.07.11-.07 0-.06-.15s0-.06.06-.09a.45.45 0 0 1 .06.12v.34s-.11.02-.09-.22zm.38.26v.08h-.05zm0 9.25a.18.18 0 0 1 0-.09s0 0 0 0v.08zm.35.1s0 0 0 0h.09s0 0 0 0zm.15-.48s0-.05 0-.08zm.19.62s-.07 0-.11 0v-.1l.17.07s-.02.02-.09.03zm.04-7.64h-.08.09s-.01 0-.01 0zm.63 7.88-.08-.05s0 0 0 0h.09zm.47-.51s0 0 0 0h.08s-.04 0-.07 0zm.8-1.1h-.08.09zm1.1-.37s0 0 0 0v-.09l.05.05zm.29-4.63h-.08.05.08s-.03 0-.05 0zm.72-.25s0 0 0 0h.08zm.27 4.25v-.08zm.15.61-.08-.05s0 0 0 0 .05 0 .08 0zm.23-2.61v-.08a.2.2 0 0 1 0 .08zm0-1.4s0 0 0 0h.08s0 0 0 0a.12.12 0 0 1 -.1 0zm0-1.12h-.08s0 0 0 0zm.42-.17s0 0 0 0h.09-.05zm.07.44h-.05l.05-.08s.03.05.02.08zm.08.84v-.09l.05.05-.05.08s.02-.03.02-.04z"/><path d="m16.85 11.39h-.05a.14.14 0 0 0 -.09 0 .5.5 0 0 0 .13 0z"/><path d="m43.94 20.75s0 0 0 0z"/><path d="m43.61 12.76v.05h.06a0 0 0 0 1 -.06-.05z"/><path d="m42.81 18.45a.43.43 0 0 1 0 0z"/><path d="m44.89 12-.05.05h.05z"/><path d="m52.79 16.79h.11s0-.08-.09-.12a.21.21 0 0 1 -.16-.14s.05-.06.08-.09l.17.23h.1a2.13 2.13 0 0 0 -.56-1.13c-.05-.05 0-.16-.09-.2s-.06-.15 0-.23.13 0 .18 0 .17.25.33.07c-.12-.12-.23-.24-.36-.35s-.15-.21.07-.22a.5.5 0 0 0 0-.13c-.09-.14-.16-.06-.23 0-.13-.12-.32-.23-.08-.43 0 0 0-.11 0-.16l-.16.11c-.25.09-.21-.09-.21-.23h-.38s-.07-.06-.1-.09c.19-.16-.19-.35 0-.51s.07-.13 0-.18-.25-.08-.25-.13c0-.34-.33-.3-.53-.39 0-.32-.37-.23-.53-.39h-.08c-.14.22-.21-.12-.36 0s-.21-.06-.32-.12-.21-.11-.33 0c0-.07 0-.17-.09-.2s-.11.16-.22 0-.18-.08-.23.06 0 .09-.07.13c-.06-.23-.4 0-.43-.23a2.08 2.08 0 0 0 -.25 0s-.07 0-.11.08h.17s0 0 .09.09l-.28.21c-.14.1-.41 0-.35-.12s-.14-.28-.09-.43c0 .13-.2.21-.12.39s-.08.22-.15.39a2.36 2.36 0 0 0 -.11-.4c-.39 0-.45-.23-.49-.63l-.12.34-.16-.12v.24s-.1.17-.13.26-.12.13-.22.07a2.07 2.07 0 0 1 -.35-.22c-.23-.24-.33-.07-.37.14s0 .07 0 .07h-.08a.75.75 0 0 0 -.19.07c-.18-.22-.19 0-.22.09s-.07 0-.1 0 0 .18 0 .22-.07.18-.09.27c-.07-.14-.34 0-.33-.26v-.36l-.38.38a.66.66 0 0 0 0 .26s0 .05 0 0 0 .07 0 .07h-.08a1.63 1.63 0 0 1 -.78.19s-.07 0-.1.06c.14.16.38.29.19.58l-.38-.52c-.17.21 0 .35.06.51-.19.06-.17.27-.25.41s-.23.23.07.22v.11s-.14.11-.2.09-.09-.12-.13-.18l-.22.22.11.08-.11.05c0 .07.1.2.08.22s0 .18.05.21 0 .2.06.32 0 0 0 0 0 .08 0 .08l-.08-.06c-.07 0-.13.07-.12.1a3.76 3.76 0 0 1 .15.8s0 0 .1 0 .05 0 0 0 .08 0 .08 0l-.06.08c0 .1-.06.17 0 .2.25.24.08.35-.13.45v.13c.19 0 .11.15.13.25l.1.08h-.1v.13l.1.08h-.1a2.15 2.15 0 0 0 .18.24c.13.15.42.17.34.47a.5.5 0 0 0 .24 0s.05 0 0 0 .08 0 .08 0l-.06.07a.37.37 0 0 0 .08.2c-.23.1 0 .21 0 .31s.38.08.14.31v.16a.3.3 0 0 1 0 .43.37.37 0 0 0 0 .21c0 .22.27.25.4.39a.45.45 0 0 0 .17.08c-.13.08-.08.14 0 .23a.75.75 0 0 1 .15.24l.12-.07a.63.63 0 0 0 0-.23.23.23 0 0 1 -.09-.07s.08 0 .08 0 0 .05 0 .08c.18-.15.32 0 .46 0l-.07.24.1.09h-.1c.08.06.2.11.24.19.12.29.11.29.2.31s.43-.12.47.21h.08s.21-.07.31 0 .19.25.35.08a.17.17 0 0 1 .13 0c.12.1.19.27.41.09.06-.06.27 0 .41.05s0-.06 0-.1a.23.23 0 0 1 -.09-.07s.07 0 .08 0a.25.25 0 0 1 .21.15c.1.08.19.22.25.21a.51.51 0 0 0 .25-.21.29.29 0 0 1 -.08-.07s.07 0 .07 0a.25.25 0 0 1 0 .09c.16.06.39-.15.41.16 0 0 0 .06.07.09.17-.23.34-.08.52 0s.19-.11.28-.17c-.15-.13-.12-.18.08-.17a1 1 0 0 0 .32-.05s0 0 0 0 .08 0 .07 0a.35.35 0 0 1 0 .08v.12c.22 0 .41-.14.38-.35s.09-.11.15-.11.13.06.18 0 .2-.16.21-.14c.25.21.12-.11.19-.13h.09c.19.09.22-.06.27-.17-.1 0-.25.06-.26-.13h-.12l.08-.1v.1h.1l.25-.06-.09.22a.73.73 0 0 0 .62-.06l.16-.07c.09 0 .21.05.23-.12s.11-.21.11-.32 0-.24.26-.31c.08-.1.07-.37.3-.14 0 0 .09-.08.08-.11a.73.73 0 0 0 -.15-.25.23.23 0 0 1 -.09-.07s.07 0 .08 0 0 .06 0 .09h.24c-.07-.11-.15-.23.09-.22a.21.21 0 0 0 0-.16c-.09-.1-.14-.17 0-.27s0-.51.26-.7l-.12-.11a1.25 1.25 0 0 0 -.12-.08c.28-.11.06-.4.16-.5s0-.28 0-.42l-.1-.08h.1l.13-.25zm-10.43-1s0-.05 0-.08a.12.12 0 0 1 0 .08s.02-.05 0-.04zm.13-.87s0 .05 0 .08h-.05zm0 .5a.36.36 0 0 1 0-.09v.05zm.24-1.63s0 .05 0 0 0 .07 0 .07h-.07zm0 4.35s0 0 0 0 0 0 .08 0 0 0 0 0a.12.12 0 0 1 -.09-.04zm.15-1s0 0 0 0a.18.18 0 0 1 0-.09v.05zm0-1.15s0 0-.05 0h.09s0 0 0 0zm0-.31a.59.59 0 0 1 0 .08s-.05-.06-.05-.09zm0-1.44s0-.08 0-.08h.12s0 0 0 .1zm.12-.24a.59.59 0 0 1 0-.08zm.49 6.23s0-.08 0-.08h.16s0 .05 0 .1zm3.05-8s0-.05 0-.08 0 0 0 0zm1.11 4.35s0 0 0 0h.08a.12.12 0 0 1 -.09.02zm.15 1.9s0-.05 0-.08 0 0 0 0a.59.59 0 0 1 0 .08zm.38-.75h-.05l.05-.08s0 0 0 0 0 .07-.01.1zm.61 1s0 0-.05 0h.09zm1 2.64a.47.47 0 0 1 -.16 0s0-.07 0-.07a.55.55 0 0 1 .18 0s.01.07-.01.07zm.32-.21a.29.29 0 0 1 -.07.08s0-.07 0-.07a.25.25 0 0 1 .09 0zm.82-8.28v-.05a.59.59 0 0 0 0-.08l.05.05zm.25.12.05.05-.05.08v-.05a.59.59 0 0 0 .01-.08zm0 .36h.09zm.14 7.39v-.08s0 0 0 0 .01.05 0 .08zm.25-6a.59.59 0 0 1 0-.08zm.25 4.5v-.08a.12.12 0 0 1 0 .08s.02-.01 0 0zm.49-.52s0 0 0 0h.08zm0-.31s0 0 0 0a.59.59 0 0 1 0 .08s-.01-.05-.02-.08zm0-1.8s0-.05 0-.08h.16s0 0 .06.09a.55.55 0 0 1 -.2-.01zm.27 2.11h-.08s0 0 0 0z"/><path d="m42 15.38h-.06.06s0 .01 0 0z"/><path d="m18.35 21.42s0 .09 0 .11a.65.65 0 0 0 .15.18h.08a.85.85 0 0 0 0-.09 1.33 1.33 0 0 0 -.12-.16.42.42 0 0 0 -.11-.04z"/><path d="m18.62 21.35a1 1 0 0 0 .17-.12.3.3 0 0 0 0-.1h-.25z"/><path d="m117.75 16.13.3-.22c-.2 0-.35-.14-.43.09h-.12v.25c.09-.02.24.06.25-.12z"/><path d="m41.92 16.88a.75.75 0 0 0 -.07-.12l-.17.17.16.12c.04-.05.08-.12.08-.17z"/><path d="m117.85 17.66h-.23v.25z"/><path d="m84.94 19.13h-.12v.25c.18-.01.1-.16.12-.25z"/><path d="m111.07 21.71a.75.75 0 0 0 0 .16l.1-.13-.08-.11s-.03.06-.02.08z"/><path d="m41.92 17.38a.21.21 0 0 0 -.1 0 .39.39 0 0 0 .1.08.57.57 0 0 0 .13 0v-.12z"/><path d="m85.33 17.31a.67.67 0 0 0 .07.18l.06-.11-.08-.13s-.06.05-.05.06z"/><path d="m41.86 17.13h-.16s0 .08 0 .08h.25c-.05-.05-.07-.08-.09-.08z"/><path d="m106 16.25h-.11s.07.07.11.08.08 0 .12 0v-.13z"/><path d="m13 21.37s0 .08 0 .11a.28.28 0 0 0 .08-.11s0-.08 0-.12h-.08a.48.48 0 0 0 0 .12z"/><path d="m12.47 12.07a1.2 1.2 0 0 0 -.07.19.48.48 0 0 0 0 .12s.1-.05.12-.09a.63.63 0 0 0 -.05-.22z"/><path d="m10.57 15.75h-.16s0 .08 0 .08h.25c-.05-.04-.07-.08-.09-.08z"/><path d="m74.22 14.88a.21.21 0 0 0 -.1 0 .87.87 0 0 0 .1.08h.13v-.12a.56.56 0 0 0 -.13.04z"/><path d="m16.23 21.7-.18-.07h-.12s.05.1.09.12.1-.02.21-.05z"/><path d="m20.6 13.63h.12v-.25h-.12z"/><path d="m75.11 13.18.06.07h.06a.25.25 0 0 0 0-.09s-.09.01-.12.02z"/><path d="m20.85 13.38-.13-.13v.13z"/><path d="m84.54 13.33-.1-.08v.13z"/><path d="m116.69 13.36-.06-.07-.06.06z"/><path d="m20.93 13.49-.06-.07h-.06z"/><path d="m51.87 13.43s0 0 0 0l-.08.06.06.05z"/><path d="m51.76 13.56v-.06a.25.25 0 0 0 -.09 0s0 .05 0 .07z"/><path d="m52 13.68-.07.06v.05z"/><path d="m74.74 13.8.05.08h.06a.3.3 0 0 0 0-.1z"/><path d="m11.24 13.08v-.08.05.08z"/><path d="m117.36 13.8-.08.06.06.06z"/><path d="m85.32 14.13-.12-.13v.13z"/><path d="m85.43 14.21-.11-.08v.12z"/><path d="m117.45 14.15-.08.1h.13z"/><path d="m117.6 14.33-.1-.08v.13z"/><circle cx="117.43" cy="14.44" r=".09"/><path d="m41.69 14.54.1.09v-.13z"/><path d="m117.62 14.63-.12-.13v.13z"/><path d="m117.7 14.74-.06-.07h-.06z"/><path d="m85.45 14.81h.07s0 0 0 0l-.06-.07z"/><path d="m10.58 14.89-.08.11.06.05.06-.07z"/><path d="m43.29 12.67a.12.12 0 0 0 0 .08s0 0 0 0z"/><path d="m21.59 15-.11-.08v.08z"/><path d="m10.4 15 .1.09v-.09z"/><path d="m85.39 15.13v-.05-.08s0 0 0 0a.18.18 0 0 0 0 .13z"/><path d="m52.71 15.5v-.08a.2.2 0 0 0 0 .08s-.02-.01 0 0z"/><path d="m10.52 15.55.05.08h.06a.3.3 0 0 0 0-.1z"/><path d="m43.45 12.43v.07h.06a.25.25 0 0 0 0-.09z"/><path d="m21.73 15.94h-.08z"/><path d="m41.73 15.88v.08a.2.2 0 0 0 0-.08z"/><path d="m44.2 12.18.06.07h.06a.25.25 0 0 0 0-.09s-.09.01-.12.02z"/><path d="m85.45 16.06.07.05s0 0 0 0l-.02-.11z"/><path d="m107.68 12 .1.09v-.09z"/><path d="m78.47 10.77-.09.11h.13z"/><path d="m106.18 16.48.09-.1h-.13z"/><path d="m53.13 16.71-.13-.08v.12z"/><path d="m52.9 16.88h.1v-.13h-.1z"/><path d="m53 16.93.08.06a.14.14 0 0 1 0 0l-.06-.07z"/><path d="m52.88 17.21-.11-.08v.12z"/><path d="m117.77 17.34s0 0 0 0v-.08-.05z"/><path d="m73.35 17.55.06.08a.3.3 0 0 0 0-.1s-.04.01-.06.02z"/><path d="m41.94 17.67.11.08v-.12z"/><path d="m85.25 17.75.06-.07-.07.06z"/><path d="m42.2 18.29a.18.18 0 0 0 0 .09s0 0 0 0v-.09s-.01-.01 0 0z"/><path d="m85.3 18.34-.1-.09v.13z"/><path d="m116 11.68h-.07v.06z"/><path d="m85.07 18.5.13-.12h-.13z"/><path d="m85.07 18.68.08.06-.06-.07z"/><path d="m42.44 18.8.05.08s0 0 0 0v-.09z"/><path d="m11.19 19 .07-.06v-.05s-.07 0-.09 0 .01.11.02.11z"/><path d="m117.5 18.93.07.06s0 0 0 0l-.06-.07z"/><path d="m42.86 19.12.07-.06v-.06h-.1s.02.09.03.12z"/><path d="m73.64 19.12.07-.06v-.06h-.09s.01.09.02.12z"/><path d="m84.94 19.07.06.06.06-.08z"/><path d="m45.56 11.71v-.08s-.05 0 0 0 0 .05 0 .08z"/><path d="m117.47 19.21-.1-.08v.12z"/><path d="m108.27 11.55-.07.06.06.06s0-.09.01-.12z"/><path d="m117.24 19.38.13-.13h-.13z"/><path d="m48.09 11.55-.07.06.05.06z"/><path d="m46.94 11.54s0 0 0 0v.08.05a.18.18 0 0 0 0-.13z"/><path d="m84.35 19.86.09-.11h-.13z"/><path d="m116.91 20.11.09-.11h-.13z"/><path d="m15.64 11.4-.09.1h.13z"/><path d="m52 20.31.08.05s0 0 0 0l-.06-.07z"/><path d="m74.6 20.5.12-.12h-.12z"/><path d="m84.19 20.45v.05l.06-.07z"/><path d="m20.09 20.63.13-.13h-.13z"/><path d="m74.52 20.62.08-.06v-.06h-.1s.02.09.02.12z"/><path d="m20 20.75.12-.12h-.12z"/><path d="m47 11.29h-.05s0 .05 0 .08v.05z"/><path d="m84 20.79a.18.18 0 0 0 0 .09s0 0 0 0z"/><path d="m44.08 20.93.06.07a.25.25 0 0 0 0-.09s-.04.01-.06.02z"/><path d="m18.83 21.13h.17v-.13z"/><path d="m44.19 21 .13.13v-.13z"/><path d="m12.92 21.17.11.08v-.12z"/><path d="m50.64 21.46s0-.05 0-.08 0 0 0 0z"/><path d="m114 21.43.08.06-.06-.07z"/><path d="m14.57 21.71s0 0 0 0v-.08s0 .05 0 .08z"/><path d="m15 21.74.08-.06v-.05h-.1s.02.08.02.11z"/><path d="m17.7 21.68.07.06s0 0 0 0l-.06-.07z"/><path d="m109.53 10.8s0 0 0 0l-.07.06.06.06a.35.35 0 0 0 .01-.12z"/><path d="m112.36 21.73.09-.1h-.13z"/><path d="m114 21.67s0 0 0 .08 0-.05 0-.08 0-.01 0 0z"/><path d="m79.06 21.86.08-.11h-.14z"/><path d="m81.33 22 .08-.1h-.12z"/></g></svg>